<svg width="32" height="32" viewBox="0 0 32 32" fill="none" xmlns="http://www.w3.org/2000/svg">
<g clip-path="url(#clip0_6_76)">
<path d="M27.282 4.65008C25.8133 3.17066 24.0653 1.99777 22.1396 1.19952C20.2138 0.401269 18.1487 -0.00643714 16.064 7.68401e-05C7.32603 7.68401e-05 0.214031 7.11208 0.214031 15.8561C0.214031 18.6501 0.946031 21.3821 2.33203 23.7821L0.0820312 32.0001L8.48803 29.7941C10.8119 31.0599 13.4157 31.7241 16.062 31.7261H16.068C24.806 31.7261 31.924 24.6141 31.924 15.8701C31.9293 13.7862 31.5217 11.7218 30.7246 9.79637C29.9275 7.87091 28.7568 6.12247 27.28 4.65208L27.282 4.65008ZM16.068 29.0501C13.7063 29.0505 11.388 28.4156 9.35603 27.2121L8.87403 26.9241L3.88603 28.2301L5.21803 23.3681L4.90603 22.8681C3.58155 20.7696 2.88162 18.3376 2.88803 15.8561C2.89227 12.3603 4.28327 9.00891 6.75575 6.53755C9.22823 4.0662 12.5802 2.67672 16.076 2.67408C19.594 2.67408 22.908 4.05008 25.394 6.53608C26.6208 7.75845 27.5933 9.21181 28.2551 10.8122C28.917 12.4126 29.2551 14.1282 29.25 15.8601C29.244 23.1341 23.332 29.0501 16.068 29.0501ZM23.294 19.1761C22.9 18.9761 20.95 18.0201 20.588 17.8881C20.226 17.7561 19.962 17.6881 19.694 18.0881C19.432 18.4821 18.67 19.3761 18.438 19.6441C18.206 19.9061 17.976 19.9441 17.582 19.7441C17.188 19.5441 15.906 19.1261 14.394 17.7761C13.218 16.7261 12.42 15.4261 12.188 15.0321C11.956 14.6381 12.162 14.4201 12.364 14.2261C12.546 14.0501 12.758 13.7641 12.958 13.5321C13.158 13.3001 13.22 13.1381 13.352 12.8701C13.484 12.6081 13.42 12.3761 13.32 12.1761C13.22 11.9761 12.426 10.0261 12.102 9.23208C11.784 8.45608 11.452 8.56408 11.208 8.55008C10.976 8.53808 10.714 8.53808 10.452 8.53808C10.19 8.53808 9.75803 8.63808 9.39603 9.03208C9.03403 9.42608 8.00803 10.3881 8.00803 12.3381C8.00803 14.2881 9.42603 16.1701 9.62603 16.4381C9.82603 16.7001 12.42 20.7061 16.394 22.4201C17.338 22.8261 18.076 23.0701 18.65 23.2581C19.6 23.5581 20.462 23.5141 21.144 23.4141C21.906 23.3021 23.488 22.4581 23.82 21.5321C24.152 20.6061 24.152 19.8141 24.052 19.6501C23.958 19.4741 23.696 19.3761 23.296 19.1741L23.294 19.1761Z" fill="#69C1A1"/>
</g>
<defs>
<clipPath id="clip0_6_76">
<rect width="32" height="32" fill="white"/>
</clipPath>
</defs>
</svg>
